<svg t="1631699913780" class="icon" viewBox="0 0 1024 1024" version="1.1" xmlns="http://www.w3.org/2000/svg" xmlns:xlink="http://www.w3.org/1999/xlink" fill="currentColor"><defs><style type="text/css"></style></defs><path d="M819.2 785.066667H204.8a136.533333 136.533333 0 0 1-136.533333-136.533334v-273.066666a136.533333 136.533333 0 0 1 136.533333-136.533334h614.4a136.533333 136.533333 0 0 1 136.533333 136.533334v273.066666a136.533333 136.533333 0 0 1-136.533333 136.533334zM204.8 307.2a68.266667 68.266667 0 0 0-68.266667 68.266667v273.066666a68.266667 68.266667 0 0 0 68.266667 68.266667h614.4a68.266667 68.266667 0 0 0 68.266667-68.266667v-273.066666a68.266667 68.266667 0 0 0-68.266667-68.266667z" p-id="2214"></path><path d="M682.666667 546.133333H341.333333a34.133333 34.133333 0 0 1 0-68.266666h341.333334a34.133333 34.133333 0 0 1 0 68.266666z"></path></svg>